<svg width="512" height="512" viewBox="0 0 512 512" fill="none" xmlns="http://www.w3.org/2000/svg">
<path d="M166.698 170.577C166.698 154.794 153.903 142 138.121 142H78.586C62.8035 142 50.0093 154.794 50.0093 170.577C50.0093 186.359 62.8036 199.153 78.5861 199.153H138.121C153.903 199.153 166.698 186.359 166.698 170.577Z" fill="url(#paint0_linear_175_14)"/>
<path d="M297.674 227.73L104.781 227.73C88.9989 227.73 76.2047 240.524 76.2047 256.307C76.2047 272.089 88.9989 284.884 104.781 284.884H338.66C333.797 293.29 331.014 303.05 331.014 313.46L278.623 313.46C262.841 313.46 250.046 326.255 250.046 342.037C250.046 357.82 262.841 370.614 278.623 370.614L388.167 370.614C415.994 370.614 439.176 350.728 444.277 324.392C447.702 325.033 451.235 325.368 454.846 325.368C486.411 325.368 512 299.779 512 268.214C512 251.505 504.829 236.47 493.398 226.02C497.671 218.011 500.093 208.865 500.093 199.153C500.093 167.588 474.504 142 442.939 142H223.851C208.069 142 195.274 154.794 195.274 170.577C195.274 186.359 208.069 199.153 223.851 199.153H305.321C300.458 207.56 297.674 217.32 297.674 227.73Z" fill="url(#paint1_linear_175_14)"/>
<path d="M192.893 313.46C208.675 313.46 221.47 326.255 221.47 342.037C221.47 357.82 208.675 370.614 192.893 370.614H176.223C160.441 370.614 147.646 357.82 147.646 342.037C147.646 326.255 160.441 313.46 176.223 313.46H192.893Z" fill="url(#paint2_linear_175_14)"/>
<path d="M119.07 342.037C119.07 326.255 106.276 313.46 90.493 313.46H28.5767C12.7942 313.46 0 326.255 0 342.037C0 357.82 12.7942 370.614 28.5767 370.614H90.493C106.276 370.614 119.07 357.82 119.07 342.037Z" fill="url(#paint3_linear_175_14)"/>
<defs>
<linearGradient id="paint0_linear_175_14" x1="0" y1="256" x2="512" y2="256" gradientUnits="userSpaceOnUse">
<stop stop-color="#EDEDED"/>
<stop offset="1" stop-color="#CCCCCC"/>
</linearGradient>
<linearGradient id="paint1_linear_175_14" x1="0" y1="256" x2="512" y2="256" gradientUnits="userSpaceOnUse">
<stop stop-color="#EDEDED"/>
<stop offset="1" stop-color="#CCCCCC"/>
</linearGradient>
<linearGradient id="paint2_linear_175_14" x1="0" y1="256" x2="512" y2="256" gradientUnits="userSpaceOnUse">
<stop stop-color="#EDEDED"/>
<stop offset="1" stop-color="#CCCCCC"/>
</linearGradient>
<linearGradient id="paint3_linear_175_14" x1="0" y1="256" x2="512" y2="256" gradientUnits="userSpaceOnUse">
<stop stop-color="#EDEDED"/>
<stop offset="1" stop-color="#CCCCCC"/>
</linearGradient>
</defs>
</svg>
